<svg viewBox="0 0 1246 41" x="0" y="0" fill="none" xmlns="http://www.w3.org/2000/svg"><defs><clipPath id="clip17_10_12082" xmlns="http://www.w3.org/2000/svg">
<rect width="202" height="40" fill="white" transform="translate(0, 0.5)"/>
</clipPath><clipPath id="clip18_10_12082" xmlns="http://www.w3.org/2000/svg">
<rect width="186" height="41" fill="white" transform="translate(416, 0)"/>
</clipPath><clipPath id="clip19_10_12082" xmlns="http://www.w3.org/2000/svg">
<rect width="218" height="40" fill="white" transform="translate(639, 0.5)"/>
</clipPath><clipPath id="clip20_10_12082" xmlns="http://www.w3.org/2000/svg">
<rect width="160" height="30" fill="white" transform="translate(894, 5.5)"/>
</clipPath><clipPath id="clip21_10_12082" xmlns="http://www.w3.org/2000/svg">
<rect width="155" height="40" fill="white" transform="translate(1091, 0.5)"/>
</clipPath></defs><g id="Frame 427320944" xmlns="http://www.w3.org/2000/svg">
<g id="Logo" clip-path="url(#clip17_10_12082)">
<path id="Vector_15" fill-rule="evenodd" clip-rule="evenodd" d="M25.556,12.19c-1.645,-1.1 -3.578,-1.69 -5.556,-1.69v-10c3.956,0 7.822,1.17 11.111,3.37c3.289,2.2 5.853,5.32 7.367,8.98c1.513,3.65 1.909,7.67 1.138,11.55c-0.772,3.88 -2.677,7.45 -5.474,10.24c-2.797,2.8 -6.361,4.7 -10.24,5.48c-3.88,0.77 -7.901,0.37 -11.556,-1.14c-3.654,-1.52 -6.778,-4.08 -8.975,-7.37c-2.198,-3.29 -3.371,-7.15 -3.371,-11.11h10c0,1.98 0.587,3.91 1.685,5.56c1.099,1.64 2.661,2.92 4.488,3.68c1.827,0.76 3.838,0.95 5.778,0.57c1.94,-0.39 3.722,-1.34 5.12,-2.74c1.399,-1.4 2.351,-3.18 2.737,-5.12c0.386,-1.94 0.188,-3.95 -0.569,-5.78c-0.757,-1.82 -2.039,-3.39 -3.683,-4.48z" fill="#7A7B85"/>
<path id="Vector_16" fill-rule="evenodd" clip-rule="evenodd" d="M10,0.5c0,1.31 -0.259,2.61 -0.761,3.83c-0.503,1.21 -1.239,2.31 -2.168,3.24c-0.929,0.93 -2.031,1.67 -3.244,2.17c-1.2134,0.5 -2.5138,0.76 -3.827,0.76v10c2.6264,0 5.227,-0.52 7.654,-1.52c2.426,-1.01 4.631,-2.48 6.488,-4.34c1.857,-1.85 3.33,-4.06 4.336,-6.49c1.005,-2.42 1.522,-5.02 1.522,-7.65z" fill="#7A7B85"/>
<path id="Vector_17" d="M125.619,14.95h-4.852v15.41h4.852z" fill="#7A7B85"/>
<path id="Vector_18" d="M121.307,12.07c0.507,0.5 1.141,0.76 1.902,0.76c0.761,0 1.385,-0.26 1.871,-0.76c0.487,-0.53 0.73,-1.17 0.73,-1.91c0,-0.76 -0.243,-1.39 -0.73,-1.9c-0.486,-0.51 -1.11,-0.76 -1.871,-0.76c-0.761,0 -1.395,0.25 -1.902,0.76c-0.487,0.51 -0.73,1.14 -0.73,1.9c0,0.74 0.243,1.38 0.73,1.91z" fill="#7A7B85"/>
<path id="Vector_19" d="M51.156,30.36v-22.38h4.979v18.01h9.926v4.37z" fill="#7A7B85"/>
<path id="Vector_20" fill-rule="evenodd" clip-rule="evenodd" d="M75.027,30.71c-1.585,0 -3.023,-0.35 -4.313,-1.04c-1.268,-0.72 -2.272,-1.69 -3.012,-2.92c-0.74,-1.23 -1.11,-2.6 -1.11,-4.12c0,-1.53 0.37,-2.89 1.11,-4.09c0.74,-1.21 1.744,-2.16 3.012,-2.86c1.269,-0.72 2.707,-1.08 4.313,-1.08c1.607,0 3.045,0.35 4.313,1.05c1.269,0.7 2.273,1.66 3.013,2.89c0.74,1.2 1.11,2.56 1.11,4.09c0,1.52 -0.37,2.89 -1.11,4.12c-0.74,1.23 -1.744,2.2 -3.013,2.92c-1.268,0.69 -2.706,1.04 -4.313,1.04zM75.027,26.31c0.698,0 1.311,-0.15 1.84,-0.45c0.528,-0.32 0.93,-0.75 1.205,-1.3c0.296,-0.57 0.444,-1.21 0.444,-1.93c0,-0.72 -0.148,-1.35 -0.444,-1.87c-0.296,-0.55 -0.709,-0.98 -1.237,-1.27c-0.508,-0.32 -1.11,-0.48 -1.808,-0.48c-0.676,0 -1.279,0.16 -1.807,0.48c-0.529,0.29 -0.941,0.72 -1.237,1.27c-0.296,0.55 -0.444,1.18 -0.444,1.9c0,0.7 0.148,1.33 0.444,1.9c0.296,0.55 0.708,0.98 1.237,1.3c0.528,0.3 1.131,0.45 1.807,0.45z" fill="#7A7B85"/>
<path id="Vector_21" fill-rule="evenodd" clip-rule="evenodd" d="M87.306,36.39c1.289,0.59 2.78,0.89 4.471,0.89c1.649,0 3.118,-0.33 4.408,-0.99c1.29,-0.65 2.304,-1.56 3.044,-2.72c0.74,-1.17 1.111,-2.54 1.111,-4.12v-14.5h-4.758v1.04c-0.353,-0.3 -0.755,-0.55 -1.205,-0.75c-0.824,-0.4 -1.765,-0.6 -2.822,-0.6c-1.416,0 -2.674,0.33 -3.774,1.01c-1.099,0.66 -1.966,1.56 -2.6,2.73c-0.635,1.14 -0.952,2.43 -0.952,3.87c0,1.41 0.317,2.7 0.952,3.87c0.634,1.16 1.501,2.08 2.6,2.75c1.1,0.68 2.358,1.02 3.774,1.02c1.036,0 1.977,-0.2 2.822,-0.6c0.41,-0.2 0.78,-0.43 1.11,-0.69v0.97c0,1.08 -0.348,1.92 -1.046,2.51c-0.677,0.59 -1.617,0.89 -2.823,0.89c-0.972,0 -1.807,-0.17 -2.505,-0.51c-0.676,-0.34 -1.29,-0.84 -1.839,-1.49l-2.981,2.98c0.74,1.06 1.744,1.87 3.013,2.44zM94.219,25.13c-0.486,0.3 -1.068,0.45 -1.744,0.45c-0.677,0 -1.269,-0.15 -1.776,-0.45c-0.487,-0.29 -0.867,-0.7 -1.142,-1.2c-0.275,-0.53 -0.412,-1.09 -0.412,-1.68c0,-0.64 0.137,-1.21 0.412,-1.72c0.275,-0.5 0.666,-0.91 1.173,-1.2c0.508,-0.3 1.089,-0.45 1.745,-0.45c0.676,0 1.258,0.15 1.744,0.45c0.507,0.29 0.888,0.7 1.142,1.2c0.274,0.51 0.412,1.08 0.412,1.72c0,0.63 -0.138,1.2 -0.412,1.71c-0.254,0.49 -0.635,0.88 -1.142,1.17z" fill="#7A7B85"/>
<path id="Vector_22" fill-rule="evenodd" clip-rule="evenodd" d="M110.551,30.71c-1.586,0 -3.024,-0.35 -4.313,-1.04c-1.269,-0.72 -2.273,-1.69 -3.013,-2.92c-0.74,-1.23 -1.11,-2.6 -1.11,-4.12c0,-1.53 0.37,-2.89 1.11,-4.09c0.74,-1.21 1.744,-2.16 3.013,-2.86c1.268,-0.72 2.706,-1.08 4.313,-1.08c1.606,0 3.044,0.35 4.312,1.05c1.269,0.7 2.273,1.66 3.013,2.89c0.74,1.2 1.11,2.56 1.11,4.09c0,1.52 -0.37,2.89 -1.11,4.12c-0.74,1.23 -1.744,2.2 -3.013,2.92c-1.268,0.69 -2.706,1.04 -4.312,1.04zM110.551,26.31c0.697,0 1.31,-0.15 1.839,-0.45c0.528,-0.32 0.93,-0.75 1.205,-1.3c0.296,-0.57 0.444,-1.21 0.444,-1.93c0,-0.72 -0.148,-1.35 -0.444,-1.87c-0.296,-0.55 -0.708,-0.98 -1.237,-1.27c-0.507,-0.32 -1.11,-0.48 -1.807,-0.48c-0.677,0 -1.28,0.16 -1.808,0.48c-0.529,0.29 -0.941,0.72 -1.237,1.27c-0.296,0.55 -0.444,1.18 -0.444,1.9c0,0.7 0.148,1.33 0.444,1.9c0.296,0.55 0.708,0.98 1.237,1.3c0.528,0.3 1.131,0.45 1.808,0.45z" fill="#7A7B85"/>
<path id="Vector_23" fill-rule="evenodd" clip-rule="evenodd" d="M137.281,30.68c-1.035,0 -1.987,-0.2 -2.854,-0.6c-0.456,-0.21 -0.868,-0.46 -1.236,-0.76v7.55h-4.789v-21.92h4.852v1.07c0.352,-0.29 0.743,-0.54 1.173,-0.75c0.867,-0.42 1.819,-0.63 2.854,-0.63c1.459,0 2.749,0.34 3.869,1.04c1.142,0.7 2.03,1.65 2.664,2.86c0.656,1.2 0.983,2.58 0.983,4.12c0,1.54 -0.327,2.92 -0.983,4.12c-0.634,1.21 -1.522,2.16 -2.664,2.86c-1.12,0.69 -2.41,1.04 -3.869,1.04zM136.394,26.31c0.697,0 1.3,-0.16 1.807,-0.48c0.529,-0.32 0.941,-0.75 1.237,-1.3c0.296,-0.55 0.444,-1.17 0.444,-1.87c0,-0.72 -0.148,-1.35 -0.444,-1.9c-0.296,-0.55 -0.708,-0.98 -1.237,-1.27c-0.507,-0.32 -1.099,-0.48 -1.776,-0.48c-0.676,0 -1.279,0.16 -1.807,0.48c-0.508,0.29 -0.909,0.72 -1.205,1.27c-0.296,0.55 -0.444,1.18 -0.444,1.9c0,0.7 0.137,1.32 0.412,1.87c0.296,0.55 0.708,0.98 1.237,1.3c0.528,0.32 1.12,0.48 1.776,0.48z" fill="#7A7B85"/>
<path id="Vector_24" d="M149.546,30.4c0.888,0.23 1.786,0.35 2.695,0.35c1.924,0 3.446,-0.45 4.567,-1.34c1.141,-0.88 1.712,-2.08 1.712,-3.58c0,-0.97 -0.179,-1.75 -0.539,-2.35c-0.359,-0.61 -0.824,-1.1 -1.395,-1.46c-0.571,-0.35 -1.174,-0.64 -1.808,-0.85c-0.634,-0.21 -1.237,-0.39 -1.807,-0.54c-0.571,-0.15 -1.036,-0.32 -1.396,-0.51c-0.359,-0.19 -0.539,-0.44 -0.539,-0.76c0,-0.3 0.138,-0.52 0.412,-0.67c0.275,-0.16 0.687,-0.25 1.237,-0.25c0.571,0 1.152,0.12 1.744,0.35c0.613,0.23 1.163,0.63 1.649,1.2l2.759,-2.79c-0.697,-0.88 -1.606,-1.55 -2.727,-1.99c-1.099,-0.47 -2.304,-0.7 -3.615,-0.7c-1.247,0 -2.336,0.21 -3.266,0.63c-0.931,0.43 -1.65,1.01 -2.157,1.75c-0.507,0.72 -0.761,1.57 -0.761,2.57c0,0.93 0.18,1.7 0.539,2.31c0.359,0.59 0.825,1.06 1.395,1.4c0.571,0.33 1.174,0.6 1.808,0.79c0.634,0.19 1.237,0.37 1.808,0.54c0.57,0.15 1.036,0.33 1.395,0.54c0.381,0.19 0.571,0.47 0.571,0.85c0,0.3 -0.159,0.53 -0.476,0.7c-0.296,0.17 -0.729,0.25 -1.3,0.25c-0.825,0 -1.586,-0.14 -2.283,-0.44c-0.698,-0.32 -1.301,-0.75 -1.808,-1.3l-2.759,2.79c0.529,0.57 1.163,1.08 1.903,1.52c0.761,0.43 1.575,0.75 2.442,0.99z" fill="#7A7B85"/>
<path id="Vector_25" d="M167.368,30.71c-1.416,0 -2.674,-0.28 -3.773,-0.85c-1.079,-0.59 -1.924,-1.4 -2.537,-2.41c-0.614,-1.04 -0.92,-2.22 -0.92,-3.55v-8.95h4.852v8.88c0,0.53 0.084,0.98 0.254,1.37c0.19,0.38 0.465,0.67 0.824,0.88c0.36,0.21 0.793,0.32 1.3,0.32c0.719,0 1.29,-0.22 1.713,-0.67c0.423,-0.46 0.634,-1.09 0.634,-1.9v-8.88h4.852v8.91c0,1.36 -0.306,2.55 -0.92,3.59c-0.613,1.01 -1.458,1.82 -2.537,2.41c-1.078,0.57 -2.325,0.85 -3.742,0.85z" fill="#7A7B85"/>
<path id="Vector_26" d="M181.831,14.95h-4.852v15.41h4.852v-9c0,-0.53 0.106,-0.97 0.317,-1.33c0.233,-0.36 0.54,-0.64 0.92,-0.83c0.381,-0.21 0.814,-0.32 1.3,-0.32c0.698,0 1.279,0.23 1.744,0.67c0.487,0.42 0.73,1.03 0.73,1.81v9h4.852v-9c0,-0.53 0.106,-0.97 0.317,-1.33c0.233,-0.36 0.539,-0.64 0.92,-0.83c0.38,-0.21 0.814,-0.32 1.3,-0.32c0.698,0 1.279,0.23 1.744,0.67c0.486,0.42 0.729,1.03 0.729,1.81v9h4.853v-9.54c0,-1.29 -0.275,-2.39 -0.825,-3.3c-0.529,-0.93 -1.258,-1.64 -2.188,-2.12c-0.909,-0.51 -1.956,-0.76 -3.14,-0.76c-1.205,0 -2.294,0.26 -3.266,0.79c-0.632,0.33 -1.184,0.77 -1.657,1.3c-0.441,-0.56 -0.977,-1.01 -1.61,-1.37c-0.845,-0.48 -1.807,-0.72 -2.885,-0.72c-1.142,0 -2.167,0.24 -3.076,0.72c-0.396,0.21 -0.755,0.45 -1.079,0.73z" fill="#7A7B85"/>
</g>
<g id="Logo_2">
<path id="Vector_27" d="M261.419,18.87c-0.379,0.38 -0.669,0.84 -0.85,1.35c-0.181,0.51 -0.248,1.04 -0.196,1.58l-0.018,-0.02c0.053,0.63 -0.032,1.27 -0.249,1.86c-0.217,0.59 -0.561,1.13 -1.008,1.58c-0.447,0.45 -0.986,0.79 -1.58,1.01c-0.593,0.21 -1.227,0.3 -1.857,0.25l0.018,0.01c-0.753,-0.07 -1.51,0.1 -2.167,0.47c-0.657,0.38 -1.182,0.95 -1.503,1.63c-0.322,0.69 -0.424,1.46 -0.294,2.2c0.131,0.75 0.488,1.43 1.024,1.97c0.535,0.53 1.222,0.89 1.968,1.02c0.745,0.13 1.512,0.03 2.197,-0.3c0.685,-0.32 1.253,-0.84 1.628,-1.5c0.376,-0.66 0.539,-1.41 0.468,-2.17l0.019,0.02c-0.053,-0.63 0.032,-1.26 0.249,-1.86c0.217,-0.59 0.561,-1.13 1.008,-1.58c0.447,-0.44 0.986,-0.79 1.58,-1.01c0.593,-0.21 1.227,-0.3 1.857,-0.24l-0.019,-0.02c0.615,0.05 1.235,-0.05 1.801,-0.3c0.566,-0.24 1.06,-0.63 1.437,-1.12c0.377,-0.49 0.624,-1.07 0.719,-1.68c0.094,-0.61 0.033,-1.23 -0.178,-1.81c-0.211,-0.58 -0.566,-1.1 -1.031,-1.51c-0.464,-0.41 -1.024,-0.69 -1.628,-0.82c-0.603,-0.14 -1.23,-0.11 -1.823,0.06c-0.593,0.17 -1.133,0.49 -1.569,0.93z" fill="#7A7B85"/>
<path id="Vector_28" d="M254.042,24.14l-0.019,-0.02c0.535,0.05 1.076,-0.01 1.583,-0.19c0.507,-0.19 0.967,-0.48 1.348,-0.86c0.38,-0.38 0.672,-0.84 0.852,-1.34c0.181,-0.51 0.248,-1.05 0.194,-1.59l0.019,0.02c-0.053,-0.63 0.032,-1.26 0.249,-1.86c0.217,-0.59 0.561,-1.13 1.008,-1.58c0.447,-0.44 0.986,-0.79 1.58,-1c0.593,-0.22 1.227,-0.31 1.857,-0.25l-0.019,-0.02c0.754,0.07 1.51,-0.09 2.168,-0.47c0.657,-0.37 1.182,-0.94 1.504,-1.63c0.322,-0.68 0.425,-1.45 0.295,-2.19c-0.13,-0.75 -0.487,-1.44 -1.022,-1.97c-0.535,-0.54 -1.223,-0.89 -1.968,-1.03c-0.746,-0.13 -1.513,-0.02 -2.198,0.3c-0.685,0.32 -1.254,0.85 -1.629,1.5c-0.375,0.66 -0.539,1.42 -0.468,2.17l-0.018,-0.02c0.053,0.63 -0.031,1.27 -0.248,1.86c-0.217,0.59 -0.562,1.13 -1.008,1.58c-0.447,0.45 -0.987,0.79 -1.58,1.01c-0.594,0.22 -1.228,0.3 -1.858,0.25l0.018,0.02c-0.535,-0.06 -1.076,0.01 -1.583,0.19c-0.507,0.18 -0.967,0.47 -1.348,0.85c-0.38,0.38 -0.671,0.84 -0.852,1.35c-0.181,0.5 -0.247,1.04 -0.194,1.58l-0.018,-0.02c0.053,0.63 -0.032,1.27 -0.249,1.86c-0.217,0.59 -0.561,1.13 -1.008,1.58c-0.447,0.45 -0.986,0.79 -1.58,1.01c-0.593,0.21 -1.227,0.3 -1.857,0.25l0.018,0.01c-0.753,-0.07 -1.51,0.1 -2.168,0.47c-0.657,0.38 -1.182,0.95 -1.504,1.63c-0.322,0.69 -0.425,1.45 -0.295,2.2c0.13,0.74 0.487,1.43 1.022,1.97c0.536,0.53 1.223,0.89 1.968,1.02c0.746,0.13 1.513,0.03 2.198,-0.3c0.685,-0.32 1.254,-0.84 1.629,-1.5c0.375,-0.66 0.539,-1.41 0.468,-2.17l0.019,0.02c-0.053,-0.63 0.032,-1.26 0.249,-1.86c0.217,-0.59 0.561,-1.13 1.008,-1.58c0.447,-0.44 0.986,-0.79 1.58,-1.01c0.593,-0.21 1.227,-0.3 1.857,-0.24z" fill="#7A7B85"/>
<path id="Vector_29" d="M247.34,22.13c0.379,-0.38 0.669,-0.84 0.85,-1.35c0.18,-0.51 0.247,-1.05 0.195,-1.58l0.019,0.02c-0.053,-0.63 0.032,-1.27 0.249,-1.86c0.217,-0.59 0.561,-1.13 1.009,-1.58c0.447,-0.45 0.986,-0.79 1.58,-1.01c0.594,-0.21 1.228,-0.3 1.858,-0.25l-0.019,-0.01c0.753,0.07 1.51,-0.1 2.167,-0.47c0.657,-0.38 1.182,-0.95 1.504,-1.63c0.321,-0.69 0.424,-1.45 0.294,-2.2c-0.13,-0.74 -0.487,-1.43 -1.022,-1.97c-0.535,-0.53 -1.222,-0.89 -1.967,-1.02c-0.745,-0.13 -1.513,-0.02 -2.197,0.3c-0.685,0.32 -1.254,0.84 -1.629,1.5c-0.375,0.66 -0.539,1.41 -0.468,2.17l-0.018,-0.02c0.053,0.63 -0.032,1.26 -0.249,1.86c-0.217,0.59 -0.561,1.13 -1.008,1.58c-0.447,0.44 -0.986,0.79 -1.58,1.01c-0.593,0.21 -1.227,0.3 -1.857,0.24l0.018,0.02c-0.615,-0.05 -1.235,0.05 -1.801,0.3c-0.566,0.24 -1.06,0.63 -1.437,1.12c-0.377,0.49 -0.623,1.07 -0.718,1.68c-0.094,0.61 -0.033,1.23 0.178,1.81c0.212,0.58 0.566,1.1 1.031,1.51c0.464,0.41 1.024,0.69 1.628,0.82c0.603,0.14 1.23,0.11 1.823,-0.06c0.593,-0.17 1.133,-0.49 1.569,-0.93z" fill="#7A7B85"/>
<path id="Vector_30" d="M278.317,12.16h2.97v14.45h-2.97z" fill="#7A7B85"/>
<path id="Vector_31" d="M282.969,21.66c-0.004,-1.04 0.3,-2.06 0.874,-2.92c0.574,-0.87 1.392,-1.54 2.351,-1.94c0.958,-0.4 2.014,-0.51 3.033,-0.31c1.019,0.2 1.956,0.7 2.692,1.43c0.736,0.73 1.237,1.67 1.442,2.69c0.204,1.02 0.101,2.07 -0.295,3.03c-0.397,0.96 -1.069,1.78 -1.933,2.36c-0.863,0.58 -1.878,0.89 -2.917,0.89c-0.689,0 -1.373,-0.13 -2.012,-0.39c-0.639,-0.26 -1.22,-0.64 -1.708,-1.13c-0.489,-0.48 -0.875,-1.06 -1.137,-1.7c-0.263,-0.64 -0.395,-1.32 -0.39,-2.01zM290.493,21.66c-0.012,-0.45 -0.156,-0.88 -0.414,-1.25c-0.258,-0.37 -0.618,-0.65 -1.035,-0.81c-0.417,-0.16 -0.873,-0.2 -1.311,-0.1c-0.438,0.09 -0.838,0.31 -1.15,0.63c-0.312,0.32 -0.523,0.73 -0.606,1.17c-0.083,0.44 -0.034,0.9 0.14,1.31c0.175,0.41 0.467,0.76 0.84,1.01c0.373,0.25 0.811,0.38 1.259,0.38c0.307,0.01 0.612,-0.05 0.896,-0.16c0.284,-0.12 0.542,-0.29 0.755,-0.51c0.214,-0.22 0.38,-0.48 0.488,-0.77c0.108,-0.29 0.155,-0.59 0.138,-0.9z" fill="#7A7B85"/>
<path id="Vector_32" d="M305.3,16.71v9.4c0,3.33 -2.594,4.73 -5.227,4.73c-0.927,0.07 -1.855,-0.12 -2.683,-0.54c-0.828,-0.42 -1.523,-1.07 -2.009,-1.86l2.534,-1.46c0.204,0.41 0.53,0.75 0.933,0.97c0.404,0.23 0.866,0.32 1.324,0.27c0.293,0.04 0.591,0.02 0.873,-0.07c0.282,-0.09 0.54,-0.25 0.754,-0.45c0.215,-0.2 0.381,-0.45 0.487,-0.73c0.106,-0.27 0.148,-0.57 0.123,-0.86v-0.91c-0.348,0.43 -0.79,0.76 -1.292,0.99c-0.503,0.22 -1.05,0.32 -1.599,0.3c-1.306,-0.04 -2.545,-0.59 -3.454,-1.53c-0.91,-0.94 -1.418,-2.19 -1.418,-3.5c0,-1.31 0.508,-2.56 1.418,-3.5c0.909,-0.94 2.148,-1.49 3.454,-1.53c0.549,-0.03 1.096,0.08 1.599,0.3c0.502,0.22 0.944,0.56 1.292,0.99v-1.01zM302.41,21.46c0.02,-0.48 -0.104,-0.95 -0.355,-1.36c-0.252,-0.41 -0.62,-0.73 -1.056,-0.93c-0.437,-0.19 -0.923,-0.26 -1.395,-0.18c-0.472,0.09 -0.909,0.31 -1.254,0.64c-0.346,0.33 -0.584,0.76 -0.685,1.23c-0.1,0.47 -0.058,0.95 0.121,1.4c0.179,0.44 0.487,0.82 0.885,1.09c0.397,0.27 0.865,0.41 1.344,0.41c0.312,0.02 0.625,-0.02 0.919,-0.13c0.294,-0.11 0.563,-0.27 0.789,-0.49c0.225,-0.22 0.403,-0.48 0.521,-0.77c0.119,-0.29 0.175,-0.6 0.166,-0.91z" fill="#7A7B85"/>
<path id="Vector_33" d="M306.982,21.66c-0.004,-1.04 0.3,-2.06 0.874,-2.92c0.574,-0.87 1.392,-1.54 2.35,-1.94c0.959,-0.4 2.014,-0.51 3.034,-0.31c1.019,0.2 1.956,0.7 2.692,1.43c0.736,0.73 1.237,1.67 1.442,2.69c0.204,1.02 0.101,2.07 -0.295,3.03c-0.397,0.96 -1.069,1.78 -1.933,2.36c-0.863,0.58 -1.878,0.89 -2.917,0.89c-0.689,0 -1.374,-0.13 -2.012,-0.39c-0.639,-0.26 -1.22,-0.64 -1.708,-1.13c-0.489,-0.48 -0.875,-1.06 -1.138,-1.7c-0.262,-0.64 -0.394,-1.32 -0.389,-2.01zM314.506,21.66c-0.012,-0.45 -0.157,-0.88 -0.414,-1.25c-0.258,-0.37 -0.618,-0.65 -1.035,-0.81c-0.418,-0.16 -0.874,-0.2 -1.311,-0.1c-0.438,0.09 -0.838,0.31 -1.15,0.63c-0.312,0.32 -0.523,0.73 -0.606,1.17c-0.083,0.44 -0.034,0.9 0.14,1.31c0.175,0.41 0.467,0.76 0.84,1.01c0.373,0.25 0.811,0.38 1.259,0.38c0.307,0.01 0.612,-0.05 0.896,-0.16c0.284,-0.12 0.541,-0.29 0.755,-0.51c0.214,-0.22 0.38,-0.48 0.488,-0.77c0.108,-0.29 0.155,-0.59 0.138,-0.9z" fill="#7A7B85"/>
<path id="Vector_34" d="M318.861,14.06c0,-0.36 0.104,-0.7 0.3,-0.99c0.196,-0.3 0.474,-0.53 0.8,-0.66c0.326,-0.14 0.684,-0.17 1.03,-0.1c0.345,0.07 0.663,0.24 0.912,0.49c0.249,0.25 0.419,0.56 0.488,0.91c0.068,0.34 0.033,0.7 -0.102,1.03c-0.135,0.32 -0.363,0.6 -0.656,0.8c-0.293,0.19 -0.638,0.3 -0.99,0.3c-0.471,-0.01 -0.922,-0.2 -1.255,-0.53c-0.333,-0.33 -0.522,-0.78 -0.527,-1.25zM319.161,16.71h2.971v9.9h-2.975z" fill="#7A7B85"/>
<path id="Vector_35" d="M334.956,21.66c0.034,0.65 -0.061,1.31 -0.281,1.93c-0.219,0.61 -0.558,1.18 -0.998,1.67c-0.44,0.48 -0.971,0.88 -1.564,1.16c-0.593,0.27 -1.234,0.43 -1.889,0.47c-0.55,0.03 -1.1,-0.07 -1.611,-0.28c-0.51,-0.21 -0.967,-0.53 -1.338,-0.93v4.89h-2.97v-13.86h2.97v0.93c0.371,-0.41 0.829,-0.73 1.339,-0.94c0.51,-0.21 1.06,-0.3 1.61,-0.27c0.655,0.03 1.297,0.19 1.889,0.47c0.593,0.28 1.125,0.68 1.564,1.16c0.44,0.49 0.78,1.05 0.999,1.67c0.219,0.62 0.315,1.27 0.28,1.93zM331.986,21.66c-0.012,-0.46 -0.16,-0.91 -0.425,-1.29c-0.266,-0.38 -0.638,-0.68 -1.07,-0.85c-0.431,-0.16 -0.903,-0.2 -1.356,-0.11c-0.453,0.1 -0.867,0.33 -1.191,0.66c-0.324,0.34 -0.542,0.75 -0.628,1.21c-0.086,0.46 -0.036,0.93 0.144,1.35c0.18,0.43 0.482,0.79 0.868,1.05c0.386,0.26 0.84,0.39 1.303,0.39c0.318,0.02 0.636,-0.04 0.932,-0.15c0.296,-0.12 0.564,-0.3 0.787,-0.53c0.222,-0.22 0.394,-0.5 0.503,-0.8c0.11,-0.29 0.155,-0.61 0.133,-0.93z" fill="#7A7B85"/>
<path id="Vector_36" d="M344.121,23.64c0,2.28 -1.979,3.25 -4.117,3.25c-0.864,0.07 -1.731,-0.11 -2.49,-0.53c-0.759,-0.42 -1.375,-1.06 -1.767,-1.83l2.573,-1.47c0.104,0.36 0.328,0.67 0.633,0.89c0.306,0.21 0.676,0.31 1.047,0.28c0.712,0 1.069,-0.22 1.069,-0.61c0,-1.09 -4.871,-0.52 -4.871,-3.94c0,-2.16 1.822,-3.25 3.881,-3.25c0.774,-0.02 1.54,0.16 2.219,0.53c0.679,0.38 1.246,0.92 1.641,1.59l-2.534,1.37c-0.111,-0.26 -0.296,-0.48 -0.532,-0.64c-0.236,-0.15 -0.512,-0.24 -0.794,-0.23c-0.515,0 -0.832,0.2 -0.832,0.55c0.004,1.13 4.874,0.38 4.874,4.04z" fill="#7A7B85"/>
<path id="Vector_37" d="M354.97,16.71v9.9h-2.97v-0.93c-0.343,0.41 -0.778,0.73 -1.27,0.94c-0.492,0.21 -1.026,0.3 -1.56,0.27c-2,0 -3.7,-1.43 -3.7,-4.1v-6.08h2.97v5.64c-0.025,0.24 0.002,0.48 0.079,0.7c0.076,0.22 0.201,0.43 0.365,0.6c0.164,0.17 0.363,0.3 0.584,0.39c0.22,0.09 0.457,0.13 0.694,0.11c1.089,0 1.841,-0.63 1.841,-2.04v-5.4z" fill="#7A7B85"/>
<path id="Vector_38" d="M372,20.53v6.08h-2.97v-5.82c0,-0.99 -0.475,-1.63 -1.425,-1.63c-0.99,0 -1.545,0.7 -1.545,1.86v5.59h-2.969v-5.82c0,-0.99 -0.475,-1.63 -1.426,-1.63c-0.99,0 -1.544,0.7 -1.544,1.86v5.59h-2.97v-9.9h2.97v0.91c0.308,-0.41 0.712,-0.73 1.175,-0.93c0.464,-0.21 0.972,-0.3 1.478,-0.26c0.508,-0.02 1.014,0.08 1.469,0.31c0.454,0.23 0.841,0.57 1.124,1c0.329,-0.45 0.765,-0.8 1.267,-1.03c0.502,-0.22 1.054,-0.32 1.604,-0.28c2.273,0 3.762,1.62 3.762,4.1z" fill="#7A7B85"/>
<path id="Vector_39" d="M374.512,16.65c1.217,0 2.204,-0.99 2.204,-2.21c0,-1.21 -0.987,-2.2 -2.204,-2.2c-1.217,0 -2.204,0.99 -2.204,2.2c0,1.22 0.987,2.21 2.204,2.21z" fill="#7A7B85"/>
</g>
<g id="Logo_3" clip-path="url(#clip18_10_12082)">
<path id="Vector_40" fill-rule="evenodd" clip-rule="evenodd" d="M475.037,2.73c0,-1.39 1.139,-2.52 2.544,-2.52h4.43c1,0 1.969,0.35 2.742,0.97l1.348,1.1l0.033,0.03c0.031,-0.01 0.062,-0.02 0.094,-0.03c2.431,-0.77 5.381,-0.92 8.393,-0.92c3.011,0 5.961,0.15 8.392,0.92c0.032,0.01 0.063,0.02 0.094,0.03l0.034,-0.03l1.347,-1.1c0.773,-0.62 1.742,-0.97 2.742,-0.97h4.431c1.404,0 2.543,1.13 2.543,2.52v1.55c0,1.21 -0.513,2.35 -1.412,3.17l-1.087,0.98c-0.531,0.47 -1.168,0.82 -1.86,1.01l-0.257,0.07c1.007,2.38 1.564,4.92 1.564,6.98c0,8.27 -5.174,11.84 -9.733,14.99c-3.59,2.48 -6.798,4.69 -6.798,8.73c0,-4.04 -3.209,-6.25 -6.799,-8.73c-4.559,-3.15 -9.733,-6.72 -9.733,-14.99c0,-2.06 0.557,-4.6 1.564,-6.98l-0.257,-0.07c-0.692,-0.19 -1.329,-0.54 -1.86,-1.01l-1.087,-0.98c-0.899,-0.82 -1.412,-1.96 -1.412,-3.17zM497.927,23.25c0,0.4 -0.174,0.77 -0.484,1.05c-0.31,0.28 -0.731,0.44 -1.169,0.44c-0.379,0 -0.744,-0.12 -1.036,-0.33c0.497,1.32 1.77,2.57 3.706,0.56c1.709,-1.87 -0.076,-5.8 -1.815,-8.13c-0.58,-0.78 -1.531,-1.15 -2.508,-1.15c-0.977,0 -1.929,0.37 -2.509,1.15c-1.739,2.33 -3.524,6.26 -1.815,8.13c1.936,2.01 3.209,0.76 3.706,-0.56c-0.292,0.21 -0.657,0.33 -1.036,0.33c-0.438,0 -0.859,-0.16 -1.169,-0.44c-0.31,-0.28 -0.484,-0.65 -0.484,-1.05zM488.29,11.61h-4.606l3.63,2.87c0.799,0.64 1.966,0.43 2.46,-0.42c0.624,-1.08 -0.205,-2.45 -1.484,-2.45zM500.951,11.61h4.606l-3.63,2.87c-0.799,0.64 -1.966,0.43 -2.46,-0.42c-0.624,-1.08 0.205,-2.45 1.484,-2.45z" fill="#7A7B85"/>
<path id="Vector_41" d="M519.69,28.55h4.08v-15.39h-4.08zM519.69,10.76h4.08v-3.66h-4.08z" fill="#7A7B85"/>
<path id="Vector_42" d="M526.399,33.59h4.08v-6.78h0.06c0.87,1.32 2.28,2.19 4.44,2.19c3.96,0 6.66,-3.15 6.66,-8.13c0,-4.8 -2.61,-8.13 -6.69,-8.13c-2.1,0 -3.54,0.99 -4.53,2.34h-0.09v-1.92h-3.93zM534.109,25.61c-2.43,0 -3.72,-1.83 -3.72,-4.62c0,-2.76 1.02,-4.95 3.57,-4.95c2.52,0 3.54,2.04 3.54,4.95c0,2.91 -1.32,4.62 -3.39,4.62z" fill="#7A7B85"/>
<path id="Vector_43" d="M549.778,29c3.84,0 6.48,-1.86 6.48,-4.95c0,-3.6 -2.85,-4.32 -5.43,-4.86c-2.19,-0.45 -4.23,-0.57 -4.23,-1.89c0,-1.11 1.05,-1.71 2.64,-1.71c1.74,0 2.79,0.6 2.97,2.25h3.69c-0.3,-3.09 -2.55,-5.1 -6.6,-5.1c-3.51,0 -6.27,1.59 -6.27,4.92c0,3.36 2.7,4.11 5.46,4.65c2.1,0.42 4.05,0.57 4.05,2.04c0,1.08 -1.02,1.77 -2.82,1.77c-1.83,0 -3.09,-0.78 -3.36,-2.55h-3.78c0.24,3.27 2.73,5.43 7.2,5.43z" fill="#7A7B85"/>
<path id="Vector_44" d="M571.749,28.55v-15.39h-4.08v8.88c0,2.04 -1.17,3.48 -3.09,3.48c-1.74,0 -2.55,-0.99 -2.55,-2.79v-9.57h-4.05v10.26c0,3.36 1.92,5.55 5.34,5.55c2.16,0 3.36,-0.81 4.41,-2.22h0.09v1.8z" fill="#7A7B85"/>
<path id="Vector_45" d="M574.388,28.55h4.08v-8.94c0,-2.04 1.11,-3.36 2.76,-3.36c1.5,0 2.37,0.9 2.37,2.64v9.66h4.08v-8.94c0,-2.04 1.05,-3.36 2.76,-3.36c1.5,0 2.37,0.9 2.37,2.64v9.66h4.08v-10.35c0,-3.36 -1.83,-5.46 -5.07,-5.46c-1.95,0 -3.57,1.02 -4.62,2.7h-0.06c-0.75,-1.62 -2.31,-2.7 -4.26,-2.7c-2.13,0 -3.63,1.08 -4.47,2.49h-0.09v-2.07h-3.93z" fill="#7A7B85"/>
<path id="Vector_46" d="M416.684,28.55h4.08v-21.45h-4.08z" fill="#7A7B85"/>
<path id="Vector_47" d="M430.74,29c4.77,0 8.04,-3.54 8.04,-8.13c0,-4.59 -3.27,-8.13 -8.04,-8.13c-4.77,0 -8.04,3.54 -8.04,8.13c0,4.59 3.27,8.13 8.04,8.13zM430.74,25.88c-2.52,0 -3.9,-2.01 -3.9,-5.01c0,-3 1.38,-5.04 3.9,-5.04c2.49,0 3.9,2.04 3.9,5.04c0,3 -1.41,5.01 -3.9,5.01z" fill="#7A7B85"/>
<path id="Vector_48" d="M447.457,33.8c2.28,0 4.26,-0.54 5.55,-1.74c1.14,-1.05 1.83,-2.52 1.83,-4.68v-14.22h-3.93v1.62h-0.06c-0.93,-1.29 -2.34,-2.04 -4.26,-2.04c-3.9,0 -6.66,2.94 -6.66,7.53c0,4.65 3.36,7.35 6.78,7.35c1.95,0 3.12,-0.78 4.02,-1.8h0.09v1.68c0,2.1 -1.11,3.21 -3.42,3.21c-1.89,0 -2.76,-0.75 -3.09,-1.71h-4.05c0.42,3 3,4.8 7.2,4.8zM447.397,24.35c-2.1,0 -3.48,-1.53 -3.48,-4.14c0,-2.58 1.38,-4.2 3.45,-4.2c2.46,0 3.66,1.92 3.66,4.17c0,2.28 -1.05,4.17 -3.63,4.17z" fill="#7A7B85"/>
<path id="Vector_49" d="M464.754,29c4.77,0 8.04,-3.54 8.04,-8.13c0,-4.59 -3.27,-8.13 -8.04,-8.13c-4.77,0 -8.04,3.54 -8.04,8.13c0,4.59 3.27,8.13 8.04,8.13zM464.754,25.88c-2.52,0 -3.9,-2.01 -3.9,-5.01c0,-3 1.38,-5.04 3.9,-5.04c2.49,0 3.9,2.04 3.9,5.04c0,3 -1.41,5.01 -3.9,5.01z" fill="#7A7B85"/>
<path id="Vector_50" d="M596.704,9.8c0,-0.69 0.559,-1.25 1.25,-1.25h2.5c0.69,0 1.25,0.56 1.25,1.25c0,0.69 -0.56,1.25 -1.25,1.25h-2.5c-0.691,0 -1.25,-0.56 -1.25,-1.25z" fill="#7A7B85"/>
</g>
<g id="Logo_4" clip-path="url(#clip19_10_12082)">
<path id="Vector_51" d="M761.355,30.02h4.663v-17.58h-4.663zM761.355,9.69h4.663v-4.18h-4.663z" fill="#7A7B85"/>
<path id="Vector_52" d="M769.023,35.78h4.663v-7.74h0.068c0.994,1.5 2.606,2.5 5.074,2.5c4.526,0 7.612,-3.6 7.612,-9.29c0,-5.49 -2.983,-9.29 -7.646,-9.29c-2.4,0 -4.046,1.13 -5.177,2.67h-0.103v-2.19h-4.491zM777.834,26.66c-2.777,0 -4.251,-2.09 -4.251,-5.28c0,-3.15 1.165,-5.65 4.08,-5.65c2.88,0 4.045,2.33 4.045,5.65c0,3.33 -1.508,5.28 -3.874,5.28z" fill="#7A7B85"/>
<path id="Vector_53" d="M795.741,30.54c4.389,0 7.406,-2.13 7.406,-5.66c0,-4.11 -3.257,-4.94 -6.206,-5.55c-2.503,-0.52 -4.834,-0.65 -4.834,-2.16c0,-1.27 1.2,-1.96 3.017,-1.96c1.989,0 3.189,0.69 3.394,2.57h4.217c-0.342,-3.53 -2.914,-5.82 -7.542,-5.82c-4.012,0 -7.166,1.81 -7.166,5.62c0,3.84 3.086,4.7 6.24,5.31c2.4,0.48 4.628,0.65 4.628,2.33c0,1.24 -1.165,2.03 -3.222,2.03c-2.092,0 -3.532,-0.89 -3.84,-2.92h-4.32c0.274,3.74 3.12,6.21 8.228,6.21z" fill="#7A7B85"/>
<path id="Vector_54" d="M820.85,30.02v-17.58h-4.663v10.14c0,2.34 -1.337,3.98 -3.531,3.98c-1.989,0 -2.914,-1.13 -2.914,-3.19v-10.93h-4.629v11.72c0,3.84 2.194,6.34 6.103,6.34c2.469,0 3.84,-0.92 5.04,-2.53h0.103v2.05z" fill="#7A7B85"/>
<path id="Vector_55" d="M823.866,30.02h4.663v-10.21c0,-2.33 1.269,-3.84 3.155,-3.84c1.714,0 2.708,1.03 2.708,3.01v11.04h4.663v-10.21c0,-2.33 1.2,-3.84 3.154,-3.84c1.715,0 2.709,1.03 2.709,3.01v11.04h4.663v-11.82c0,-3.84 -2.092,-6.24 -5.795,-6.24c-2.228,0 -4.08,1.16 -5.28,3.08h-0.068c-0.857,-1.85 -2.64,-3.08 -4.869,-3.08c-2.434,0 -4.148,1.23 -5.108,2.84h-0.103v-2.36h-4.492z" fill="#7A7B85"/>
<path id="Vector_56" d="M639.824,30.02h4.663v-24.51h-4.663z" fill="#7A7B85"/>
<path id="Vector_57" d="M655.888,30.54c5.452,0 9.189,-4.05 9.189,-9.29c0,-5.25 -3.737,-9.29 -9.189,-9.29c-5.451,0 -9.188,4.04 -9.188,9.29c0,5.24 3.737,9.29 9.188,9.29zM655.888,26.97c-2.88,0 -4.457,-2.29 -4.457,-5.72c0,-3.43 1.577,-5.76 4.457,-5.76c2.846,0 4.458,2.33 4.458,5.76c0,3.43 -1.612,5.72 -4.458,5.72z" fill="#7A7B85"/>
<path id="Vector_58" d="M674.993,36.02c2.606,0 4.869,-0.61 6.343,-1.98c1.303,-1.2 2.091,-2.88 2.091,-5.35v-16.25h-4.491v1.85h-0.069c-1.063,-1.48 -2.674,-2.33 -4.868,-2.33c-4.457,0 -7.612,3.36 -7.612,8.6c0,5.32 3.84,8.4 7.749,8.4c2.228,0 3.566,-0.89 4.594,-2.06h0.103v1.92c0,2.4 -1.269,3.67 -3.909,3.67c-2.16,0 -3.154,-0.85 -3.531,-1.95h-4.629c0.48,3.43 3.429,5.48 8.229,5.48zM674.924,25.22c-2.4,0 -3.977,-1.74 -3.977,-4.73c0,-2.95 1.577,-4.8 3.943,-4.8c2.812,0 4.183,2.2 4.183,4.77c0,2.6 -1.2,4.76 -4.149,4.76z" fill="#7A7B85"/>
<path id="Vector_59" d="M694.761,30.54c5.452,0 9.189,-4.05 9.189,-9.29c0,-5.25 -3.737,-9.29 -9.189,-9.29c-5.451,0 -9.188,4.04 -9.188,9.29c0,5.24 3.737,9.29 9.188,9.29zM694.761,26.97c-2.88,0 -4.457,-2.29 -4.457,-5.72c0,-3.43 1.577,-5.76 4.457,-5.76c2.846,0 4.457,2.33 4.457,5.76c0,3.43 -1.611,5.72 -4.457,5.72z" fill="#7A7B85"/>
<path id="Vector_60" d="M851.275,9.55c0,-0.79 0.64,-1.43 1.429,-1.43h2.857c0.789,0 1.429,0.64 1.429,1.43c0,0.79 -0.64,1.43 -1.429,1.43h-2.857c-0.789,0 -1.429,-0.64 -1.429,-1.43z" fill="#7A7B85"/>
<path id="Vector_61" fill-rule="evenodd" clip-rule="evenodd" d="M732.228,0.5c11.045,0 20,8.95 20,20c0,11.05 -8.955,20 -20,20c-11.046,0 -20,-8.95 -20,-20c0,-11.05 8.954,-20 20,-20zM731.505,2c-2.282,0.32 -4.455,2.15 -6.141,5.22c-0.489,0.89 -0.931,1.87 -1.315,2.93c2.293,-0.58 4.812,-0.92 7.456,-0.97zM722.358,10.63c0.479,-1.5 1.064,-2.88 1.739,-4.11c0.836,-1.52 1.828,-2.83 2.946,-3.84c-6.079,1.77 -10.87,6.56 -12.636,12.64c1.009,-1.12 2.321,-2.11 3.841,-2.95c1.228,-0.68 2.609,-1.26 4.11,-1.74zM721.878,12.32c-0.576,2.29 -0.916,4.81 -0.969,7.46h-7.185c0.321,-2.28 2.155,-4.46 5.221,-6.14c0.889,-0.49 1.872,-0.93 2.933,-1.32zM722.356,19.78c0.059,-2.89 0.475,-5.6 1.162,-7.99c2.393,-0.69 5.102,-1.1 7.987,-1.16v3.12c-1.077,2.76 -3.272,4.95 -6.027,6.03zM720.909,21.22h-7.185c0.321,2.28 2.155,4.46 5.221,6.14c0.889,0.49 1.872,0.93 2.933,1.32c-0.576,-2.29 -0.916,-4.81 -0.969,-7.46zM723.518,29.21c-0.687,-2.39 -1.103,-5.1 -1.162,-7.99h3.122c2.755,1.08 4.95,3.27 6.027,6.03v3.12c-2.885,-0.06 -5.594,-0.47 -7.987,-1.16zM722.358,30.37c-1.501,-0.48 -2.882,-1.06 -4.11,-1.74c-1.52,-0.84 -2.832,-1.83 -3.841,-2.95c1.766,6.08 6.557,10.87 12.636,12.64c-1.118,-1.01 -2.11,-2.32 -2.946,-3.84c-0.675,-1.23 -1.26,-2.61 -1.739,-4.11zM731.505,39c-2.282,-0.32 -4.455,-2.15 -6.141,-5.22c-0.489,-0.89 -0.931,-1.87 -1.315,-2.93c2.293,0.58 4.812,0.92 7.456,0.97zM737.412,38.32c1.118,-1.01 2.11,-2.32 2.946,-3.84c0.675,-1.23 1.261,-2.61 1.739,-4.11c1.501,-0.48 2.882,-1.06 4.11,-1.74c1.52,-0.84 2.833,-1.83 3.841,-2.95c-1.766,6.08 -6.557,10.87 -12.636,12.64zM740.407,30.85c-0.385,1.06 -0.827,2.04 -1.316,2.93c-1.686,3.07 -3.859,4.9 -6.141,5.22v-7.18c2.644,-0.05 5.163,-0.39 7.457,-0.97zM742.577,28.68c1.061,-0.39 2.044,-0.83 2.933,-1.32c3.067,-1.68 4.9,-3.86 5.221,-6.14h-7.185c-0.053,2.65 -0.393,5.17 -0.969,7.46zM742.1,21.22c-0.06,2.89 -0.475,5.6 -1.163,7.99c-2.393,0.69 -5.101,1.1 -7.987,1.16v-3.12c1.076,-2.75 3.272,-4.95 6.028,-6.03zM743.546,19.78h7.185c-0.321,-2.28 -2.154,-4.46 -5.221,-6.14c-0.889,-0.49 -1.872,-0.93 -2.933,-1.32c0.576,2.29 0.916,4.81 0.969,7.46zM740.937,11.79c0.688,2.39 1.103,5.1 1.163,7.99h-3.122c-2.756,-1.08 -4.952,-3.28 -6.028,-6.03v-3.12c2.886,0.06 5.594,0.47 7.987,1.16zM742.097,10.63c1.501,0.48 2.882,1.06 4.11,1.74c1.52,0.84 2.833,1.83 3.841,2.95c-1.766,-6.08 -6.557,-10.87 -12.636,-12.64c1.118,1.01 2.11,2.32 2.946,3.84c0.675,1.23 1.261,2.61 1.739,4.11zM732.95,2c2.282,0.32 4.455,2.15 6.141,5.22c0.489,0.89 0.931,1.87 1.316,2.93c-2.294,-0.58 -4.813,-0.92 -7.457,-0.97z" fill="#7A7B85"/>
</g>
<g id="Logo_5" clip-path="url(#clip20_10_12082)">
<path id="Vector_62" d="M932.57,6.77h3.99v21.79h6.57v3.64h-10.56z" fill="#7A7B85"/>
<path id="Vector_63" d="M950.68,32.56c-1.96,0 -3.46,-0.56 -4.5,-1.67c-1.04,-1.12 -1.56,-2.69 -1.56,-4.72v-13.37c0,-2.03 0.52,-3.6 1.56,-4.72c1.04,-1.11 2.54,-1.67 4.5,-1.67c1.96,0 3.46,0.56 4.5,1.67c1.05,1.12 1.57,2.69 1.57,4.72v13.37c0,2.03 -0.52,3.6 -1.57,4.72c-1.04,1.11 -2.54,1.67 -4.5,1.67zM950.68,28.93c1.38,0 2.07,-0.84 2.07,-2.51v-13.87c0,-1.67 -0.69,-2.51 -2.07,-2.51c-1.38,0 -2.07,0.84 -2.07,2.51v13.87c0,1.67 0.69,2.51 2.07,2.51z" fill="#7A7B85"/>
<path id="Vector_64" d="M965.11,32.56c-1.93,0 -3.41,-0.55 -4.43,-1.64c-1.01,-1.11 -1.52,-2.7 -1.52,-4.75v-13.37c0,-2.05 0.51,-3.63 1.52,-4.72c1.02,-1.11 2.5,-1.67 4.43,-1.67c1.94,0 3.42,0.56 4.43,1.67c1.02,1.09 1.53,2.67 1.53,4.72v2.18h-3.78v-2.43c0,-1.67 -0.69,-2.51 -2.07,-2.51c-1.38,0 -2.07,0.84 -2.07,2.51v13.91c0,1.64 0.69,2.47 2.07,2.47c1.38,0 2.07,-0.83 2.07,-2.47v-4.98h-2v-3.63h5.78v8.32c0,2.05 -0.51,3.64 -1.53,4.75c-1.01,1.09 -2.49,1.64 -4.43,1.64z" fill="#7A7B85"/>
<path id="Vector_65" d="M979.41,32.56c-1.96,0 -3.46,-0.56 -4.51,-1.67c-1.04,-1.12 -1.56,-2.69 -1.56,-4.72v-13.37c0,-2.03 0.52,-3.6 1.56,-4.72c1.05,-1.11 2.55,-1.67 4.51,-1.67c1.96,0 3.46,0.56 4.5,1.67c1.04,1.12 1.56,2.69 1.56,4.72v13.37c0,2.03 -0.52,3.6 -1.56,4.72c-1.04,1.11 -2.54,1.67 -4.5,1.67zM979.41,28.93c1.38,0 2.07,-0.84 2.07,-2.51v-13.87c0,-1.67 -0.69,-2.51 -2.07,-2.51c-1.38,0 -2.07,0.84 -2.07,2.51v13.87c0,1.67 0.69,2.51 2.07,2.51z" fill="#7A7B85"/>
<path id="Vector_66" d="M988.18,6.77h4v25.43h-4z" fill="#7A7B85"/>
<path id="Vector_67" d="M995.17,6.77h5.88c1.98,0 3.47,0.54 4.47,1.6c0.99,1.07 1.49,2.63 1.49,4.69v2.5c0,2.06 -0.5,3.62 -1.49,4.69c-1,1.06 -2.49,1.6 -4.47,1.6h-1.89v10.35h-3.99zM1001.05,18.21c0.65,0 1.14,-0.18 1.45,-0.54c0.34,-0.36 0.51,-0.98 0.51,-1.85v-3.02c0,-0.87 -0.17,-1.49 -0.51,-1.85c-0.31,-0.36 -0.8,-0.54 -1.45,-0.54h-1.89v7.8z" fill="#7A7B85"/>
<path id="Vector_68" d="M1014.51,32.56c-1.94,0 -3.4,-0.55 -4.39,-1.64c-1,-1.11 -1.49,-2.7 -1.49,-4.75v-1.46h3.77v1.75c0,1.64 0.69,2.47 2.07,2.47c0.68,0 1.19,-0.2 1.53,-0.58c0.36,-0.42 0.54,-1.07 0.54,-1.97c0,-1.06 -0.24,-1.99 -0.72,-2.79c-0.49,-0.82 -1.38,-1.8 -2.69,-2.94c-1.65,-1.46 -2.8,-2.76 -3.45,-3.92c-0.65,-1.19 -0.98,-2.52 -0.98,-4c0,-2.01 0.51,-3.56 1.52,-4.65c1.02,-1.11 2.5,-1.67 4.44,-1.67c1.91,0 3.35,0.56 4.32,1.67c0.99,1.09 1.49,2.67 1.49,4.72v1.06h-3.78v-1.31c0,-0.87 -0.17,-1.5 -0.51,-1.89c-0.34,-0.41 -0.83,-0.62 -1.49,-0.62c-1.33,0 -2,0.81 -2,2.44c0,0.92 0.25,1.78 0.73,2.57c0.51,0.8 1.42,1.77 2.72,2.91c1.67,1.45 2.82,2.77 3.45,3.96c0.63,1.18 0.95,2.58 0.95,4.17c0,2.09 -0.52,3.68 -1.56,4.8c-1.02,1.11 -2.51,1.67 -4.47,1.67z" fill="#7A7B85"/>
<path id="Vector_69" d="M1028.64,32.56c-1.94,0 -3.41,-0.55 -4.43,-1.64c-1.02,-1.11 -1.53,-2.7 -1.53,-4.75v-19.4h4v19.69c0,0.87 0.17,1.5 0.51,1.89c0.36,0.38 0.87,0.58 1.52,0.58c0.66,0 1.15,-0.2 1.49,-0.58c0.36,-0.39 0.55,-1.02 0.55,-1.89v-19.69h3.84v19.4c0,2.05 -0.5,3.64 -1.52,4.75c-1.02,1.09 -2.49,1.64 -4.43,1.64z" fill="#7A7B85"/>
<path id="Vector_70" d="M1037.44,6.77h5.7l2.54,18.2h0.08l2.54,-18.2h5.7v25.43h-3.78v-19.25h-0.07l-2.91,19.25h-3.34l-2.9,-19.25h-0.07v19.25h-3.49z" fill="#7A7B85"/>
<path id="Vector_71" d="M894,32.2c4.914,0 8.898,-3.99 8.898,-8.9c0,-4.92 -3.984,-8.9 -8.898,-8.9v6.23c1.474,0 2.67,1.19 2.67,2.67c0,1.47 -1.196,2.67 -2.67,2.67z" fill="#7A7B85"/>
<path id="Vector_72" d="M923.66,17.36c-1.52,-0.48 -3.14,-0.74 -4.82,-0.74c-8.8,0 -15.942,7.14 -15.942,15.95c0,0.88 0.072,1.75 0.212,2.59h9.9c-0.35,-0.79 -0.55,-1.67 -0.55,-2.59c0,-3.53 2.86,-6.38 6.38,-6.38c1.93,0 3.65,0.85 4.82,2.2z" fill="#7A7B85"/>
<path id="Vector_73" d="M895.564,5.5c0.738,6.67 6.396,11.86 13.266,11.86c6.87,0 12.53,-5.19 13.27,-11.86h-9.55c-0.59,1.48 -2.03,2.52 -3.72,2.52c-1.69,0 -3.13,-1.04 -3.72,-2.52z" fill="#7A7B85"/>
</g>
<g id="Logo_6" clip-path="url(#clip21_10_12082)">
<path id="Vector_74" d="M1142.58,10.78h-3.58v16.17h9.92v-3.17h-6.34z" fill="#7A7B85"/>
<path id="Vector_75" d="M1149.26,21.46c0,3.46 2.31,5.75 5.81,5.75c3.47,0 5.79,-2.29 5.79,-5.75c0,-3.45 -2.32,-5.76 -5.79,-5.76c-3.5,0 -5.81,2.31 -5.81,5.76zM1152.64,21.44c0,-1.64 0.97,-2.73 2.43,-2.73c1.44,0 2.4,1.09 2.4,2.73c0,1.66 -0.96,2.76 -2.4,2.76c-1.46,0 -2.43,-1.1 -2.43,-2.76z" fill="#7A7B85"/>
<path id="Vector_76" d="M1161.4,21.29c0,3.3 2.14,5.53 5.17,5.53c1.47,0 2.73,-0.53 3.37,-1.38v1.51c0,1.5 -0.94,2.51 -2.6,2.51c-1.49,0 -2.51,-0.7 -2.58,-1.94h-3.41c0.31,2.99 2.63,5 5.79,5c3.74,0 6.1,-2.43 6.1,-6.27v-10.22h-3.04l-0.17,1.11c-0.62,-0.9 -1.9,-1.49 -3.39,-1.49c-3.06,0 -5.24,2.3 -5.24,5.64zM1164.81,21.2c0,-1.57 1.04,-2.62 2.38,-2.62c1.55,0 2.68,1.03 2.68,2.62c0,1.6 -1.11,2.69 -2.66,2.69c-1.33,0 -2.4,-1.09 -2.4,-2.69z" fill="#7A7B85"/>
<path id="Vector_77" d="M1174.22,21.46c0,3.46 2.31,5.75 5.81,5.75c3.47,0 5.78,-2.29 5.78,-5.75c0,-3.45 -2.31,-5.76 -5.78,-5.76c-3.5,0 -5.81,2.31 -5.81,5.76zM1177.6,21.44c0,-1.64 0.96,-2.73 2.43,-2.73c1.44,0 2.4,1.09 2.4,2.73c0,1.66 -0.96,2.76 -2.4,2.76c-1.47,0 -2.43,-1.1 -2.43,-2.76z" fill="#7A7B85"/>
<path id="Vector_78" d="M1188.71,14.32c1.05,0 1.91,-0.85 1.91,-1.92c0,-1.07 -0.86,-1.9 -1.91,-1.9c-1.07,0 -1.92,0.83 -1.92,1.9c0,1.07 0.85,1.92 1.92,1.92zM1187.01,26.95h3.39v-10.92h-3.39z" fill="#7A7B85"/>
<path id="Vector_79" d="M1192.37,32.19h3.32v-6.33c0.63,0.83 2.07,1.39 3.58,1.39c3.25,0 5.22,-2.49 5.13,-5.94c-0.09,-3.51 -2.12,-5.63 -5.15,-5.63c-1.55,0 -3.02,0.67 -3.63,1.68l-0.17,-1.33h-3.08zM1195.75,21.49c0,-1.64 1.09,-2.73 2.67,-2.73c1.59,0 2.6,1.11 2.6,2.73c0,1.61 -1.01,2.73 -2.6,2.73c-1.58,0 -2.67,-1.1 -2.67,-2.73z" fill="#7A7B85"/>
<path id="Vector_80" d="M1204.76,23.5c0.09,2.2 1.84,3.73 4.59,3.73c2.64,0 4.48,-1.4 4.48,-3.65c0,-1.61 -0.97,-2.68 -2.76,-3.12l-1.94,-0.48c-0.7,-0.18 -1.14,-0.35 -1.14,-0.92c0,-0.57 0.46,-0.94 1.14,-0.94c0.76,0 1.27,0.51 1.24,1.25h3.04c-0.09,-2.27 -1.81,-3.69 -4.22,-3.69c-2.42,0 -4.23,1.44 -4.23,3.62c0,1.47 0.81,2.67 2.97,3.24l1.92,0.5c0.57,0.15 0.81,0.41 0.81,0.78c0,0.55 -0.5,0.9 -1.36,0.9c-0.98,0 -1.5,-0.46 -1.5,-1.22z" fill="#7A7B85"/>
<path id="Vector_81" d="M1218.97,27.23c1.34,0 2.67,-0.61 3.35,-1.51l0.22,1.23h3.16v-10.92h-3.36v5.68c0,1.63 -0.48,2.53 -2.03,2.53c-1.2,0 -1.99,-0.55 -1.99,-2.58v-5.63h-3.36v6.85c0,2.6 1.44,4.35 4.01,4.35z" fill="#7A7B85"/>
<path id="Vector_82" d="M1231.04,26.95v-5.97c0,-1.83 0.98,-2.35 1.94,-2.35c1.07,0 1.77,0.65 1.77,2v6.32h3.32v-5.97c0,-1.85 0.96,-2.38 1.92,-2.38c1.07,0 1.79,0.66 1.79,2.03v6.32h3.28v-7.15c0,-2.49 -1.31,-4.15 -4.13,-4.15c-1.57,0 -2.86,0.77 -3.43,1.95c-0.65,-1.18 -1.79,-1.95 -3.6,-1.95c-1.2,0 -2.32,0.55 -2.97,1.42l-0.13,-1.04h-3.15v10.92z" fill="#7A7B85"/>
<path id="Vector_83" d="M1091,20.5c0,-9.43 0,-14.14 2.93,-17.07c2.93,-2.93 7.64,-2.93 17.07,-2.93c9.43,0 14.14,0 17.07,2.93c2.93,2.93 2.93,7.64 2.93,17.07c0,9.43 0,14.14 -2.93,17.07c-2.93,2.93 -7.64,2.93 -17.07,2.93c-9.43,0 -14.14,0 -17.07,-2.93c-2.93,-2.93 -2.93,-7.64 -2.93,-17.07z" fill="#7A7B85"/>
<path id="Vector_84" d="M1115,26.5c0.55,0 1.01,0.45 0.9,0.99c-0.19,0.96 -0.66,1.85 -1.36,2.55c-0.94,0.93 -2.21,1.46 -3.54,1.46c-1.33,0 -2.6,-0.53 -3.54,-1.46c-0.7,-0.7 -1.17,-1.59 -1.36,-2.55c-0.11,-0.54 0.35,-0.99 0.9,-0.99z" fill="#07070A"/>
<path id="Vector_85" d="M1117.1,18.28c-0.53,0.14 -0.86,0.7 -0.59,1.18c0.29,0.51 0.68,0.95 1.16,1.29c0.75,0.54 1.67,0.8 2.59,0.74c0.93,-0.06 1.8,-0.44 2.47,-1.07c0.68,-0.63 1.11,-1.48 1.24,-2.4c0.12,-0.92 -0.08,-1.85 -0.57,-2.63c-0.49,-0.79 -1.24,-1.38 -2.11,-1.68c-0.88,-0.3 -1.83,-0.28 -2.7,0.05c-0.55,0.2 -1.05,0.53 -1.45,0.95c-0.39,0.39 -0.22,1.01 0.26,1.29l0.51,0.29c0.77,0.45 0.62,1.6 -0.24,1.83z" fill="#07070A"/>
<path id="Vector_86" d="M1104.9,18.28c0.53,0.14 0.86,0.7 0.59,1.18c-0.29,0.51 -0.68,0.95 -1.16,1.29c-0.75,0.54 -1.67,0.8 -2.59,0.74c-0.92,-0.06 -1.8,-0.44 -2.47,-1.07c-0.68,-0.63 -1.11,-1.48 -1.24,-2.4c-0.12,-0.92 0.08,-1.85 0.57,-2.63c0.49,-0.79 1.24,-1.38 2.11,-1.68c0.88,-0.3 1.83,-0.28 2.7,0.05c0.55,0.2 1.05,0.53 1.45,0.95c0.39,0.39 0.22,1.01 -0.26,1.29l-0.51,0.29c-0.77,0.45 -0.62,1.6 0.24,1.83z" fill="#07070A"/>
</g>
</g></svg>